<?xml version="1.0" encoding="UTF-8" ?>
<!DOCTYPE svg PUBLIC "-//W3C//DTD SVG 1.1//EN" "http://www.w3.org/Graphics/SVG/1.1/DTD/svg11.dtd">
<svg width="219pt" height="117pt" viewBox="0 0 219 117" version="1.1" xmlns="http://www.w3.org/2000/svg" xmlns:xlink="http://www.w3.org/1999/xlink">
<g id="#ffffffff">
<path fill="#ffffff" opacity="1.00" d=" M 106.61 0.00 L 110.78 0.00 C 128.47 0.27 144.23 14.00 148.10 31.06 C 155.41 26.62 164.81 25.59 172.67 29.19 C 182.33 33.28 188.60 43.45 188.73 53.84 C 197.27 54.14 205.62 58.42 210.34 65.62 C 214.72 71.87 215.80 79.87 214.47 87.27 C 211.65 98.73 201.08 108.07 189.05 107.98 C 136.04 108.03 83.04 108.01 30.03 107.99 C 17.95 108.13 7.33 98.74 4.53 87.24 C 3.15 79.63 4.38 71.39 9.04 65.08 C 13.80 58.18 21.95 54.13 30.26 53.83 C 30.42 43.70 36.34 33.78 45.62 29.50 C 53.62 25.55 63.39 26.45 70.93 31.04 C 74.69 14.48 89.56 1.19 106.61 0.00 M 101.82 8.41 C 102.71 9.92 103.38 12.76 105.76 11.63 C 107.93 11.45 111.52 9.81 112.51 12.60 C 113.42 16.91 106.63 17.78 106.90 21.92 C 106.88 22.69 106.85 24.24 106.84 25.01 C 108.32 24.97 109.80 24.93 111.29 24.87 C 111.93 20.07 118.03 18.78 118.44 14.00 C 118.93 10.68 116.68 7.31 113.44 6.47 C 109.46 5.05 105.43 6.84 101.82 8.41 M 107.30 29.48 C 103.29 31.49 106.90 37.89 110.73 35.65 C 115.18 33.82 111.30 26.75 107.30 29.48 M 87.02 34.00 C 87.02 42.67 87.02 51.33 87.02 60.00 C 87.51 60.00 88.49 60.00 88.98 60.00 C 88.97 56.86 88.95 53.71 89.11 50.57 C 93.91 52.83 95.74 59.13 101.06 60.34 C 98.07 56.84 94.84 53.56 91.80 50.12 C 94.58 47.42 97.32 44.67 100.19 42.06 C 102.84 47.66 105.27 53.35 107.81 59.01 C 106.70 61.48 105.60 63.96 104.69 66.52 C 107.34 65.91 107.98 63.12 108.97 60.99 C 111.61 54.43 114.85 48.14 117.29 41.50 C 116.80 41.74 115.83 42.21 115.35 42.45 C 112.58 46.82 111.47 52.04 108.70 56.44 C 106.74 52.26 105.14 47.91 103.19 43.72 C 102.84 42.48 101.81 41.73 100.52 41.78 C 95.48 42.42 93.47 48.25 89.10 50.41 C 88.87 44.94 89.03 39.47 88.98 34.00 C 88.49 34.00 87.51 34.00 87.02 34.00 M 55.43 45.50 C 58.13 44.55 60.70 42.20 63.75 43.19 C 66.47 44.16 66.08 47.42 66.62 49.72 C 63.19 50.26 59.34 50.25 56.42 52.36 C 54.16 54.01 54.29 57.84 56.78 59.20 C 59.81 61.18 63.69 59.77 66.23 57.62 C 66.59 58.74 67.14 59.76 67.88 60.68 C 68.05 55.81 68.39 50.86 67.75 46.02 C 66.50 40.38 57.72 40.80 55.43 45.50 M 71.08 47.99 C 72.80 51.39 77.27 50.96 80.04 52.99 C 81.89 54.63 80.78 58.04 78.47 58.66 C 75.68 59.86 72.97 57.88 70.41 57.00 C 72.84 62.37 83.27 60.51 82.61 54.20 C 81.48 49.26 74.15 51.34 72.52 46.85 C 72.64 44.98 74.01 43.36 75.86 43.03 C 78.22 42.68 80.31 43.96 82.50 44.58 C 79.78 39.63 69.73 41.85 71.08 47.99 M 122.36 42.48 C 117.29 44.53 116.43 51.24 118.39 55.75 C 120.36 60.29 126.72 61.35 130.60 58.73 C 134.70 55.52 135.17 48.93 132.15 44.84 C 129.97 41.84 125.66 41.27 122.36 42.48 M 137.45 41.99 C 137.61 46.94 136.82 52.01 137.99 56.87 C 140.19 61.73 146.60 60.28 149.97 57.52 C 149.98 58.16 150.00 59.44 150.01 60.08 C 150.45 60.04 151.32 59.95 151.76 59.91 C 151.73 53.95 151.73 48.00 151.76 42.05 C 151.23 42.02 150.19 41.97 149.66 41.95 C 149.64 46.59 149.60 51.24 149.74 55.88 C 148.01 57.13 146.40 59.02 144.09 59.01 C 141.70 59.36 139.57 57.28 139.48 54.96 C 139.13 50.64 139.42 46.31 139.34 41.99 L 137.45 41.99 M 157.01 41.27 C 156.55 47.52 156.85 53.81 156.79 60.08 C 157.30 60.04 158.32 59.96 158.83 59.92 C 159.05 55.29 157.98 50.35 159.67 45.92 C 160.99 42.90 164.29 42.78 167.08 43.43 C 167.10 43.03 167.13 42.25 167.15 41.85 C 164.20 41.78 161.18 42.12 159.06 44.42 C 158.49 43.29 157.81 42.24 157.01 41.27 M 14.19 69.01 C 14.20 77.68 14.20 86.34 14.20 95.00 C 15.35 95.00 16.50 94.99 17.65 94.99 C 17.64 88.64 17.62 82.28 17.67 75.93 C 22.69 82.01 27.22 88.50 32.34 94.48 C 33.09 94.70 34.60 95.13 35.35 95.34 C 35.41 86.56 35.36 77.78 35.38 69.00 C 34.51 69.00 32.77 69.00 31.90 69.00 C 31.90 75.35 31.88 81.69 31.91 88.04 C 26.91 81.70 22.03 75.27 16.97 68.98 C 16.28 68.99 14.89 69.00 14.19 69.01 M 39.19 69.00 C 39.20 77.67 39.20 86.33 39.20 95.00 C 44.53 95.00 49.87 95.00 55.20 95.00 C 55.20 94.25 55.20 92.75 55.20 92.00 C 51.24 92.00 47.28 92.00 43.31 91.99 C 43.32 89.00 43.32 86.00 43.31 83.01 C 46.47 83.00 49.64 83.00 52.80 82.99 C 52.81 82.25 52.81 80.75 52.81 80.01 C 49.64 80.00 46.48 80.00 43.31 79.99 C 43.32 77.33 43.32 74.67 43.32 72.00 C 47.28 72.00 51.24 72.00 55.20 72.00 C 55.20 71.25 55.20 69.75 55.20 69.00 C 49.87 69.00 44.53 69.00 39.19 69.00 M 58.20 69.00 C 58.20 77.67 58.20 86.33 58.20 95.00 C 59.57 95.00 60.94 95.00 62.32 95.00 C 62.32 86.33 62.32 77.67 62.32 69.00 C 60.94 69.00 59.57 69.00 58.20 69.00 M 72.33 70.48 C 64.00 74.18 63.27 87.30 70.60 92.39 C 75.77 96.08 82.67 95.45 88.16 92.85 C 88.22 89.23 88.21 85.62 88.21 82.00 C 85.46 82.00 82.71 82.00 79.96 82.00 C 80.00 82.72 80.07 84.17 80.11 84.90 C 81.62 84.96 83.13 85.01 84.64 85.06 C 84.63 86.98 84.62 88.90 84.62 90.82 C 81.73 91.96 78.47 92.56 75.46 91.48 C 67.76 88.61 67.67 75.38 75.39 72.44 C 78.71 71.27 82.22 72.26 85.27 73.70 C 86.97 74.75 87.39 72.42 88.17 71.43 C 83.29 69.00 77.38 67.85 72.33 70.48 M 93.19 69.01 C 93.20 77.67 93.20 86.33 93.20 95.00 C 94.57 95.00 95.94 95.00 97.32 95.00 C 97.32 91.00 97.32 87.01 97.31 83.01 C 101.71 82.99 106.10 83.00 110.50 83.00 C 110.50 87.01 110.49 91.02 110.51 95.03 C 111.48 95.01 113.41 94.99 114.38 94.98 C 114.37 86.31 114.38 77.64 114.38 68.97 C 113.07 68.99 111.77 69.02 110.47 69.05 C 110.51 72.70 110.50 76.35 110.50 80.00 C 106.10 80.00 101.71 80.00 97.31 79.99 C 97.32 76.33 97.32 72.66 97.32 69.00 C 95.94 69.00 94.57 69.00 93.19 69.01 M 119.19 69.01 C 119.20 77.67 119.20 86.33 119.19 94.99 C 123.73 94.75 128.48 95.71 132.87 94.23 C 136.69 93.03 138.84 88.37 137.30 84.68 C 136.48 82.64 134.24 82.01 132.40 81.23 C 136.49 80.10 138.61 74.79 135.56 71.53 C 131.10 67.53 124.62 69.42 119.19 69.01 M 150.20 69.16 C 144.40 69.97 139.64 75.14 139.61 81.05 C 138.92 87.06 142.92 93.25 148.94 94.53 C 156.83 97.11 166.00 90.44 165.38 82.00 C 165.93 74.05 157.85 67.55 150.20 69.16 M 170.19 69.01 C 170.20 77.67 170.20 86.33 170.19 94.99 C 171.53 95.00 172.86 95.00 174.20 95.00 C 174.20 91.32 174.20 87.65 174.20 83.97 C 175.44 84.00 176.68 84.04 177.92 84.08 C 180.35 87.70 182.72 91.37 185.14 95.00 C 186.68 95.00 188.22 95.00 189.76 95.00 C 187.07 91.12 184.62 87.08 181.60 83.44 C 186.22 81.94 189.41 76.18 186.08 71.96 C 181.99 67.68 175.47 69.30 170.19 69.01 M 195.14 70.01 C 190.98 71.77 189.71 77.88 192.92 81.08 C 195.61 83.48 199.59 83.41 202.43 85.54 C 204.48 87.52 202.94 91.53 200.18 91.86 C 197.08 92.77 194.34 90.84 191.85 89.32 C 191.38 90.09 190.44 91.63 189.96 92.40 C 193.45 94.15 197.49 96.00 201.42 94.51 C 206.16 93.32 208.91 87.02 205.97 82.94 C 203.32 79.81 198.69 79.93 195.58 77.50 C 194.43 75.86 194.94 73.03 196.99 72.40 C 199.78 71.15 202.62 72.68 205.02 74.04 C 205.44 73.36 206.29 71.98 206.71 71.30 C 203.32 69.19 198.85 67.92 195.14 70.01 Z" />
<path fill="#ffffff" opacity="1.00" d=" M 124.20 43.17 C 127.58 42.15 131.15 44.66 131.73 48.04 C 132.31 51.29 132.29 55.34 129.59 57.69 C 126.61 60.30 121.13 58.93 120.08 55.00 C 118.74 50.86 119.21 44.53 124.20 43.17 Z" />
<path fill="#ffffff" opacity="1.00" d=" M 57.90 52.93 C 60.38 51.20 63.57 51.20 66.46 50.90 C 66.12 52.96 67.15 55.71 65.13 57.11 C 63.38 58.66 60.78 59.57 58.51 58.70 C 56.29 57.82 55.77 54.19 57.90 52.93 Z" />
<path fill="#ffffff" opacity="1.00" d=" M 123.20 71.97 C 126.29 71.93 129.42 71.90 132.39 72.87 C 132.59 74.65 133.30 76.60 132.37 78.28 C 130.06 80.91 126.25 79.77 123.20 80.02 C 123.20 77.34 123.20 74.65 123.20 71.97 Z" />
<path fill="#ffffff" opacity="1.00" d=" M 149.37 72.40 C 153.41 71.00 158.52 72.56 160.21 76.70 C 161.64 80.47 161.66 85.07 159.50 88.57 C 156.13 93.79 147.08 93.04 144.69 87.28 C 142.62 82.18 143.55 74.53 149.37 72.40 Z" />
<path fill="#ffffff" opacity="1.00" d=" M 174.20 71.95 C 176.79 72.10 179.63 71.55 181.96 72.97 C 184.55 74.93 183.68 79.50 180.67 80.56 C 178.59 81.22 176.35 80.94 174.20 81.06 C 174.20 78.03 174.20 74.99 174.20 71.95 Z" />
<path fill="#ffffff" opacity="1.00" d=" M 123.20 82.99 C 126.62 83.35 131.52 81.71 133.51 85.46 C 134.08 87.62 133.71 90.39 131.51 91.52 C 128.83 92.34 125.96 91.92 123.20 92.02 C 123.20 89.01 123.20 86.00 123.20 82.99 Z" />
</g>
<g id="#ffffff">
<path id="questionMarkPart1" fill="#a4e4e5" opacity="1.00" d=" M 101.82 8.41 C 105.43 6.84 109.46 5.05 113.44 6.47 C 116.68 7.31 118.93 10.68 118.44 14.00 C 118.03 18.78 111.93 20.07 111.29 24.87 C 109.80 24.93 108.32 24.97 106.84 25.01 C 106.85 24.24 106.88 22.69 106.90 21.92 C 106.63 17.78 113.42 16.91 112.51 12.60 C 111.52 9.81 107.93 11.45 105.76 11.63 C 103.38 12.76 102.71 9.92 101.82 8.41 Z" />
<animate xlink:href="#questionMarkPart1" attributeName="opacity" values="1;0;1" dur="0.75s" begin="0s" repeatCount="indefinite" fill="freeze" id="questionMarkPart1Animation1"/>
<path id="questionMarkPart2" fill="#a4e4e5" opacity="1.00" d=" M 107.30 29.48 C 111.30 26.75 115.18 33.82 110.73 35.65 C 106.90 37.89 103.29 31.49 107.30 29.48 Z" />
<animate xlink:href="#questionMarkPart2" attributeName="opacity" values="1;0;1" dur="0.75s" begin="0s" repeatCount="indefinite" fill="freeze" id="questionMarkPart2Animation1"/>
</g>
<g id="#2a3d4cff">
<path fill="#2a3d4c" opacity="1.00" d=" M 87.02 34.00 C 87.51 34.00 88.49 34.00 88.98 34.00 C 89.03 39.47 88.87 44.94 89.10 50.41 C 93.47 48.25 95.48 42.42 100.52 41.78 L 100.19 42.06 C 97.32 44.67 94.58 47.42 91.80 50.12 C 94.84 53.56 98.07 56.84 101.06 60.34 C 95.74 59.13 93.91 52.83 89.11 50.57 C 88.95 53.71 88.97 56.86 88.98 60.00 C 88.49 60.00 87.51 60.00 87.02 60.00 C 87.02 51.33 87.02 42.67 87.02 34.00 Z" />
<path fill="#2a3d4c" opacity="1.00" d=" M 55.43 45.50 C 57.72 40.80 66.50 40.38 67.75 46.02 C 68.39 50.86 68.05 55.81 67.88 60.68 C 67.14 59.76 66.59 58.74 66.23 57.62 C 63.69 59.77 59.81 61.18 56.78 59.20 C 54.29 57.84 54.16 54.01 56.42 52.36 C 59.34 50.25 63.19 50.26 66.62 49.72 C 66.08 47.42 66.47 44.16 63.75 43.19 C 60.70 42.20 58.13 44.55 55.43 45.50 M 57.90 52.93 C 55.77 54.19 56.29 57.82 58.51 58.70 C 60.78 59.57 63.38 58.66 65.13 57.11 C 67.15 55.71 66.12 52.96 66.46 50.90 C 63.57 51.20 60.38 51.20 57.90 52.93 Z" />
<path fill="#2a3d4c" opacity="1.00" d=" M 71.08 47.99 C 69.73 41.85 79.78 39.63 82.50 44.58 C 80.31 43.96 78.22 42.68 75.86 43.03 C 74.01 43.36 72.64 44.98 72.52 46.85 C 74.15 51.34 81.48 49.26 82.61 54.20 C 83.27 60.51 72.84 62.37 70.41 57.00 C 72.97 57.88 75.68 59.86 78.47 58.66 C 80.78 58.04 81.89 54.63 80.04 52.99 C 77.27 50.96 72.80 51.39 71.08 47.99 Z" />
<path fill="#2a3d4c" opacity="1.00" d=" M 14.19 69.01 C 14.89 69.00 16.28 68.99 16.97 68.98 C 22.03 75.27 26.91 81.70 31.91 88.04 C 31.88 81.69 31.90 75.35 31.90 69.00 C 32.77 69.00 34.51 69.00 35.38 69.00 C 35.36 77.78 35.41 86.56 35.35 95.34 C 34.60 95.13 33.09 94.70 32.34 94.48 C 27.22 88.50 22.69 82.01 17.67 75.93 C 17.62 82.28 17.64 88.64 17.65 94.99 C 16.50 94.99 15.35 95.00 14.20 95.00 C 14.20 86.34 14.20 77.68 14.19 69.01 Z" />
<path fill="#2a3d4c" opacity="1.00" d=" M 39.19 69.00 C 44.53 69.00 49.87 69.00 55.20 69.00 C 55.20 69.75 55.20 71.25 55.20 72.00 C 51.24 72.00 47.28 72.00 43.32 72.00 C 43.32 74.67 43.32 77.33 43.31 79.99 C 46.48 80.00 49.64 80.00 52.81 80.01 C 52.81 80.75 52.81 82.25 52.80 82.99 C 49.64 83.00 46.47 83.00 43.31 83.01 C 43.32 86.00 43.32 89.00 43.31 91.99 C 47.28 92.00 51.24 92.00 55.20 92.00 C 55.20 92.75 55.20 94.25 55.20 95.00 C 49.87 95.00 44.53 95.00 39.20 95.00 C 39.20 86.33 39.20 77.67 39.19 69.00 Z" />
<path fill="#2a3d4c" opacity="1.00" d=" M 58.20 69.00 C 59.57 69.00 60.94 69.00 62.32 69.00 C 62.32 77.67 62.32 86.33 62.32 95.00 C 60.94 95.00 59.57 95.00 58.20 95.00 C 58.20 86.33 58.20 77.67 58.20 69.00 Z" />
<path fill="#2a3d4c" opacity="1.00" d=" M 72.33 70.48 C 77.38 67.85 83.29 69.00 88.17 71.43 C 87.39 72.42 86.97 74.75 85.27 73.70 C 82.22 72.26 78.71 71.27 75.39 72.44 C 67.67 75.38 67.76 88.61 75.46 91.48 C 78.47 92.56 81.73 91.96 84.62 90.82 C 84.62 88.90 84.63 86.98 84.64 85.06 C 83.13 85.01 81.62 84.96 80.11 84.90 C 80.07 84.17 80.00 82.72 79.96 82.00 C 82.71 82.00 85.46 82.00 88.21 82.00 C 88.21 85.62 88.22 89.23 88.16 92.85 C 82.67 95.45 75.77 96.08 70.60 92.39 C 63.27 87.30 64.00 74.18 72.33 70.48 Z" />
<path fill="#2a3d4c" opacity="1.00" d=" M 93.19 69.01 C 94.57 69.00 95.94 69.00 97.32 69.00 C 97.32 72.66 97.32 76.33 97.31 79.99 C 101.71 80.00 106.10 80.00 110.50 80.00 C 110.50 76.35 110.51 72.70 110.47 69.05 C 111.77 69.02 113.07 68.99 114.38 68.97 C 114.38 77.64 114.37 86.31 114.38 94.98 C 113.41 94.99 111.48 95.01 110.51 95.03 C 110.49 91.02 110.50 87.01 110.50 83.00 C 106.10 83.00 101.71 82.99 97.31 83.01 C 97.32 87.01 97.32 91.00 97.32 95.00 C 95.94 95.00 94.57 95.00 93.20 95.00 C 93.20 86.33 93.20 77.67 93.19 69.01 Z" />
<path fill="#2a3d4c" opacity="1.00" d=" M 119.19 69.01 C 124.62 69.42 131.10 67.53 135.56 71.53 C 138.61 74.79 136.49 80.10 132.40 81.23 C 134.24 82.01 136.48 82.64 137.30 84.68 C 138.84 88.37 136.69 93.03 132.87 94.23 C 128.48 95.71 123.73 94.75 119.19 94.99 C 119.20 86.33 119.20 77.67 119.19 69.01 M 123.20 71.97 C 123.20 74.65 123.20 77.34 123.20 80.02 C 126.25 79.77 130.06 80.91 132.37 78.28 C 133.30 76.60 132.59 74.65 132.39 72.87 C 129.42 71.90 126.29 71.93 123.20 71.97 M 123.20 82.99 C 123.20 86.00 123.20 89.01 123.20 92.02 C 125.96 91.92 128.83 92.34 131.51 91.52 C 133.71 90.39 134.08 87.62 133.51 85.46 C 131.52 81.71 126.62 83.35 123.20 82.99 Z" />
<path fill="#2a3d4c" opacity="1.00" d=" M 150.20 69.16 C 157.85 67.55 165.93 74.05 165.38 82.00 C 166.00 90.44 156.83 97.11 148.94 94.53 C 142.92 93.25 138.92 87.06 139.61 81.05 C 139.64 75.14 144.40 69.97 150.20 69.16 M 149.37 72.40 C 143.55 74.53 142.62 82.18 144.69 87.28 C 147.08 93.04 156.13 93.79 159.50 88.57 C 161.66 85.07 161.64 80.47 160.21 76.70 C 158.52 72.56 153.41 71.00 149.37 72.40 Z" />
<path fill="#2a3d4c" opacity="1.00" d=" M 170.19 69.01 C 175.47 69.30 181.99 67.68 186.08 71.96 C 189.41 76.18 186.22 81.94 181.60 83.44 C 184.62 87.08 187.07 91.12 189.76 95.00 C 188.22 95.00 186.68 95.00 185.14 95.00 C 182.72 91.37 180.35 87.70 177.92 84.08 C 176.68 84.04 175.44 84.00 174.20 83.97 C 174.20 87.65 174.20 91.32 174.20 95.00 C 172.86 95.00 171.53 95.00 170.19 94.99 C 170.20 86.33 170.20 77.67 170.19 69.01 M 174.20 71.95 C 174.20 74.99 174.20 78.03 174.20 81.06 C 176.35 80.94 178.59 81.22 180.67 80.56 C 183.68 79.50 184.55 74.93 181.96 72.97 C 179.63 71.55 176.79 72.10 174.20 71.95 Z" />
<path fill="#2a3d4c" opacity="1.00" d=" M 195.14 70.01 C 198.85 67.92 203.32 69.19 206.71 71.30 C 206.29 71.98 205.44 73.36 205.02 74.04 C 202.62 72.68 199.78 71.15 196.99 72.40 C 194.94 73.03 194.43 75.86 195.58 77.50 C 198.69 79.93 203.32 79.81 205.97 82.94 C 208.91 87.02 206.16 93.32 201.42 94.51 C 197.49 96.00 193.45 94.15 189.96 92.40 C 190.44 91.63 191.38 90.09 191.85 89.32 C 194.34 90.84 197.08 92.77 200.18 91.86 C 202.94 91.53 204.48 87.52 202.43 85.54 C 199.59 83.41 195.61 83.48 192.92 81.08 C 189.71 77.88 190.98 71.77 195.14 70.01 Z" />
</g>
<g id="#ffa294ff">
<path fill="#ffa294" opacity="1.00" d=" M 100.52 41.78 C 101.81 41.73 102.84 42.48 103.19 43.72 C 105.14 47.91 106.74 52.26 108.70 56.44 C 111.47 52.04 112.58 46.82 115.35 42.45 C 115.83 42.21 116.80 41.74 117.29 41.50 C 114.85 48.14 111.61 54.43 108.97 60.99 C 107.98 63.12 107.34 65.91 104.69 66.52 C 105.60 63.96 106.70 61.48 107.81 59.01 C 105.27 53.35 102.84 47.66 100.19 42.06 L 100.52 41.78 Z" />
</g>
<g id="#ff9f90ff">
<path fill="#ff9f90" opacity="1.00" d=" M 122.36 42.48 C 125.66 41.27 129.97 41.84 132.15 44.84 C 135.17 48.93 134.70 55.52 130.60 58.73 C 126.72 61.35 120.36 60.29 118.39 55.75 C 116.43 51.24 117.29 44.53 122.36 42.48 M 124.20 43.17 C 119.21 44.53 118.74 50.86 120.08 55.00 C 121.13 58.93 126.61 60.30 129.59 57.69 C 132.29 55.34 132.31 51.29 131.73 48.04 C 131.15 44.66 127.58 42.15 124.20 43.17 Z" />
</g>
<g id="#ff9c8dff">
<path fill="#ff9c8d" opacity="1.00" d=" M 137.45 41.99 L 139.34 41.99 C 139.42 46.31 139.13 50.64 139.48 54.96 C 139.57 57.28 141.70 59.36 144.09 59.01 C 146.40 59.02 148.01 57.13 149.74 55.88 C 149.60 51.24 149.64 46.59 149.66 41.95 C 150.19 41.97 151.23 42.02 151.76 42.05 C 151.73 48.00 151.73 53.95 151.76 59.91 C 151.32 59.95 150.45 60.04 150.01 60.08 C 150.00 59.44 149.98 58.16 149.97 57.52 C 146.60 60.28 140.19 61.73 137.99 56.87 C 136.82 52.01 137.61 46.94 137.45 41.99 Z" />
</g>
<g id="#ffa395ff">
<path fill="#ffa395" opacity="1.00" d=" M 157.01 41.27 C 157.81 42.24 158.49 43.29 159.06 44.42 C 161.18 42.12 164.20 41.78 167.15 41.85 C 167.13 42.25 167.10 43.03 167.08 43.43 C 164.29 42.78 160.99 42.90 159.67 45.92 C 157.98 50.35 159.05 55.29 158.83 59.92 C 158.32 59.96 157.30 60.04 156.79 60.08 C 156.85 53.81 156.55 47.52 157.01 41.27 Z" />
</g>
<g id="#00000044">
<path fill="#000000" opacity="0.27" d=" M 4.53 87.24 C 7.33 98.74 17.95 108.13 30.03 107.99 C 83.04 108.01 136.04 108.03 189.05 107.98 C 201.08 108.07 211.65 98.73 214.47 87.27 C 215.84 96.89 209.32 105.69 201.30 110.22 C 194.20 114.19 185.78 113.36 177.96 113.42 C 129.30 113.42 80.64 113.37 31.98 113.45 C 26.84 113.42 21.57 112.55 17.09 109.89 C 9.32 105.31 3.17 96.61 4.53 87.24 Z" />
</g>
</svg>
